<svg width="899" height="366" viewBox="0 0 899 366" fill="none" xmlns="http://www.w3.org/2000/svg">
<g clip-path="url(#clip0_711_951)">
<path d="M135.858 331.22C132.338 330.59 128.968 325.85 127.268 322.9C120.808 305.87 107.088 287.67 100.928 271.11C95.098 255.45 112.708 249.29 122.578 240.62C133.328 231.18 140.818 220.87 147.208 208.11C148.618 207.78 161.958 212.25 163.128 213.54C165.178 215.81 160.318 225.26 158.968 227.86C155.818 233.93 149.858 242.09 145.148 247.06C139.758 252.75 128.988 259.23 127.608 267.36C125.528 279.54 140.008 297.52 144.728 308.65C158.078 311.04 163.878 319.29 168.488 331.2H135.868L135.858 331.22Z" fill="white"/>
<path d="M383.918 42.08H338.818C337.908 42.08 325.688 33.94 323.148 32.78C312.998 28.16 301.008 30.16 290.078 28.8C285.398 17.8 278.358 8.62 269.158 1C266.948 14.11 265.748 27.58 263.278 40.63C260.118 57.35 248.008 82.93 238.388 97.09C215.848 130.27 151.298 119.13 116.538 121.82C108.198 122.47 101.188 126.82 94.008 127.48C88.888 127.96 84.138 126.67 79.508 126.61C55.218 126.28 30.878 126.92 6.58798 126.65C11.948 131.99 25.998 144.36 33.568 144.36H77.458C75.988 148.4 73.488 151.98 71.678 155.9C59.558 182.15 57.398 220.85 36.808 239.42C32.628 243.19 18.588 251.98 16.998 255.85C14.968 260.78 14.058 270.64 12.638 276.46C8.59798 293.03 4.45798 309.58 0.197983 326.09C-0.552017 327.43 0.987983 331.22 2.15798 331.22H34.378C40.448 331.22 35.268 315.98 31.048 313.61C29.248 312.6 27.218 312.61 25.418 311.97C24.598 311.68 23.948 312.34 24.388 310.77C25.518 306.73 32.238 294.75 34.648 290.41C39.608 281.49 43.528 273.38 52.488 267.98C76.038 253.8 107.268 248.66 125.818 227.75C134.068 218.46 139.818 207.11 144.818 195.85L235.228 226.61L235.318 320.35C235.178 324.32 239.768 331.22 243.778 331.22H263.508V314.31C263.508 313.74 253.578 311.25 255.428 307.51C261.958 281.58 263.668 254.09 273.968 229.33C284.498 217.67 306.868 203.07 309.858 187.1C314.588 161.84 312.248 131.18 315.858 105.32C317.308 95.9 315.898 87.27 326.968 84.21C343.288 79.71 362.648 89.76 375.318 72.96C378.898 68.21 384.668 51.46 385.078 45.61C385.148 44.62 385.078 42.1 383.918 42.1V42.08ZM120.578 178.22C117.028 182.17 113.928 180.44 112.238 181.55C111.518 182.02 107.528 196.61 107.428 198.15C107.288 200.25 108.918 201.74 108.948 204.36C109.008 208.92 105.458 213.24 101.228 214.51C98.588 215.3 95.748 213.9 94.528 214.6C94.068 214.87 89.118 221.68 87.948 222.92C81.008 230.26 73.438 236.85 65.778 243.42C64.678 242.42 62.348 240.09 63.308 238.6C63.928 237.64 69.918 233.6 71.438 232.18C75.548 228.34 80.648 223.46 84.318 219.28C85.478 217.96 90.308 212.25 90.758 211.22C91.228 210.16 89.198 207.94 88.918 206.6C87.698 200.92 91.968 195.49 97.578 194.61C99.228 194.35 102.008 195.35 102.388 195.09C103.008 194.65 106.798 181.67 106.898 180.67C107.078 178.69 102.608 175.48 103.408 169.94C105.818 153.24 132.178 165.28 120.568 178.22H120.578ZM148.708 135.47C154.698 129.25 162.998 133.22 165.788 140.37L221.868 140.17L262.708 101.27V87.98C268.548 87.65 265.338 100.51 265.508 104.88L224.838 144.75L165.818 145.15C159.278 161.1 137.838 146.75 148.698 135.46L148.708 135.47ZM240.988 209.24C235.838 206.07 222.908 187.68 218.648 186.41C217.188 185.97 196.388 185.83 194.788 186.21C193.988 186.4 193.188 190.49 191.018 191.47C179.078 196.82 175.968 176.59 188.938 178.21C192.698 178.68 192.718 181.52 193.608 182.05C196.558 183.8 217.448 180.77 222.418 182.64L245.778 206.78C244.688 207.92 242.698 210.09 240.978 209.24H240.988ZM260.288 232.16L256.228 230.81L255.868 190.27L228.058 165.73C203.878 164.47 179.808 166.99 155.588 166.12V161.75C180.368 161.05 205.078 159.95 229.928 160.65L260.298 188.27V232.16H260.288ZM250.608 144.75C253.888 140.7 257.138 143.28 259.098 142.03L278.818 122.21V63.01H283.648V124.62C276.868 132.29 268.128 138.51 261.938 146.4C264.628 160.62 242.598 154.61 250.618 144.73L250.608 144.75ZM283.648 168.53V193.5H278.818V168.94C278.818 168.68 275.818 166.89 274.908 165.6C267.938 155.69 283.478 147.27 288.858 155.68C292.048 160.67 289.678 167.57 283.658 168.53H283.648ZM333.588 54.16C328.718 54.71 307.818 58.19 311.138 48.26C313.098 42.39 334.558 44.3 333.588 54.16Z" fill="white"/>
<path d="M158.638 146.6C151.128 150.88 146.428 135.91 156.778 137.94C160.758 138.72 161.348 145.06 158.638 146.6Z" fill="white"/>
<path d="M116.738 175.58C112.678 179.64 104.478 172.95 109.888 167.94C114.078 164.06 120.768 171.55 116.738 175.58Z" fill="white"/>
<path d="M95.3979 207.79C91.7479 203.95 97.2179 197.22 102.098 200.69C107.818 204.76 100.358 213.01 95.3979 207.79Z" fill="white"/>
<path d="M253.158 151.5C250.588 149.88 253.198 142.7 257.878 145.57C261.808 147.98 257.038 153.96 253.158 151.5Z" fill="white"/>
<path d="M190.018 182.42C193.358 185.72 187.748 191.59 184.508 187.53C181.268 183.47 186.738 179.18 190.018 182.42Z" fill="white"/>
<path d="M280.208 155.78C288.258 153.48 289.548 167.17 280.208 165.13C275.308 164.06 276.578 156.81 280.208 155.78Z" fill="white"/>
<path d="M355.098 365.3C353.318 365.3 351.908 364.78 350.878 363.74C349.838 362.7 349.318 361.29 349.318 359.52V289.57C349.418 281.86 351.268 274.92 354.878 268.75C358.488 262.58 363.378 257.71 369.548 254.15C375.718 250.59 382.668 248.82 390.368 248.82C398.068 248.82 405.338 250.62 411.558 254.23C417.778 257.84 422.698 262.75 426.308 268.98C429.908 275.2 431.718 282.27 431.718 290.17C431.718 298.07 429.958 304.99 426.458 311.21C422.948 317.43 418.178 322.35 412.158 325.95C406.128 329.56 399.318 331.36 391.708 331.36C385.088 331.36 379.088 329.95 373.708 327.14C368.318 324.33 363.998 320.6 360.738 315.95V359.52C360.738 361.3 360.218 362.71 359.178 363.74C358.138 364.78 356.778 365.3 355.108 365.3H355.098ZM390.368 321C396.098 321 401.238 319.67 405.778 317C410.318 314.33 413.898 310.65 416.518 305.96C419.138 301.27 420.448 296.01 420.448 290.18C420.448 284.35 419.138 278.97 416.518 274.32C413.898 269.68 410.318 266 405.778 263.28C401.228 260.56 396.098 259.2 390.368 259.2C384.638 259.2 379.648 260.56 375.108 263.28C370.558 266 367.008 269.68 364.438 274.32C361.868 278.96 360.588 284.25 360.588 290.18C360.588 296.11 361.868 301.27 364.438 305.96C367.008 310.65 370.558 314.33 375.108 317C379.648 319.67 384.738 321 390.368 321Z" fill="white"/>
<path d="M490.988 331.37C483.078 331.37 476.018 329.59 469.798 326.04C463.578 322.48 458.688 317.59 455.128 311.37C451.568 305.15 449.798 298.08 449.798 290.18C449.798 282.28 451.578 275.06 455.128 268.84C458.688 262.62 463.578 257.73 469.798 254.17C476.018 250.61 483.088 248.84 490.988 248.84C498.888 248.84 505.928 250.62 512.108 254.17C518.278 257.73 523.148 262.62 526.708 268.84C530.268 275.06 532.088 282.18 532.188 290.18C532.188 298.08 530.388 305.15 526.778 311.37C523.168 317.59 518.278 322.48 512.108 326.04C505.938 329.6 498.898 331.37 490.988 331.37ZM490.988 321C496.718 321 501.858 319.67 506.398 317C510.938 314.33 514.498 310.68 517.068 306.03C519.638 301.39 520.918 296.1 520.918 290.17C520.918 284.24 519.628 278.93 517.068 274.24C514.498 269.55 510.938 265.87 506.398 263.2C501.848 260.53 496.718 259.2 490.988 259.2C485.258 259.2 480.118 260.53 475.578 263.2C471.028 265.87 467.448 269.55 464.838 274.24C462.218 278.93 460.908 284.24 460.908 290.17C460.908 296.1 462.218 301.38 464.838 306.03C467.458 310.68 471.038 314.33 475.578 317C480.118 319.67 485.258 321 490.988 321Z" fill="white"/>
<path d="M562.408 234.16C560.238 234.16 558.358 233.37 556.778 231.79C555.198 230.21 554.408 228.28 554.408 226.01C554.408 223.54 555.228 221.59 556.858 220.16C558.488 218.73 560.388 218.01 562.568 218.01C564.748 218.01 566.498 218.73 568.128 220.16C569.758 221.59 570.578 223.55 570.578 226.01C570.578 228.28 569.788 230.21 568.208 231.79C566.628 233.37 564.698 234.16 562.428 234.16H562.408ZM562.558 330.63C560.778 330.63 559.368 330.11 558.338 329.07C557.298 328.03 556.778 326.62 556.778 324.85V255.35C556.778 253.57 557.298 252.16 558.338 251.13C559.378 250.09 560.788 249.57 562.558 249.57C564.238 249.57 565.598 250.09 566.638 251.13C567.678 252.17 568.198 253.57 568.198 255.35V324.85C568.198 326.63 567.678 328.04 566.638 329.07C565.598 330.1 564.238 330.63 562.558 330.63Z" fill="white"/>
<path d="M603.018 330.63C601.238 330.63 599.828 330.11 598.798 329.07C597.768 328.03 597.238 326.68 597.238 324.99V255.34C597.238 253.56 597.758 252.15 598.798 251.12C599.838 250.08 601.248 249.56 603.018 249.56C604.698 249.56 606.058 250.08 607.088 251.12C608.128 252.16 608.648 253.56 608.648 255.34V324.99C608.648 326.67 608.128 328.03 607.088 329.07C606.048 330.11 604.688 330.63 603.018 330.63ZM666.738 330.63C665.058 330.63 663.678 330.09 662.588 329C661.498 327.91 660.958 326.58 660.958 325V286.47C660.958 280.35 659.798 275.31 657.478 271.35C655.158 267.4 651.998 264.44 647.998 262.46C643.998 260.49 639.478 259.5 634.438 259.5C629.398 259.5 625.228 260.44 621.318 262.32C617.418 264.2 614.328 266.77 612.058 270.03C609.788 273.29 608.648 276.99 608.648 281.14H600.498C600.698 274.92 602.378 269.36 605.538 264.47C608.698 259.58 612.898 255.73 618.138 252.91C623.378 250.09 629.198 248.69 635.628 248.69C642.638 248.69 648.918 250.15 654.448 253.06C659.978 255.98 664.348 260.25 667.568 265.88C670.778 271.51 672.388 278.38 672.388 286.48V325.01C672.388 326.59 671.848 327.93 670.758 329.01C669.668 330.1 668.338 330.64 666.758 330.64L666.738 330.63Z" fill="white"/>
<path d="M692.368 262.46C690.888 262.46 689.648 261.99 688.658 261.05C687.668 260.11 687.178 258.95 687.178 257.57C687.178 256.09 687.668 254.88 688.658 253.94C689.648 253 690.878 252.53 692.368 252.53H730.158C731.638 252.53 732.878 253 733.858 253.94C734.848 254.88 735.338 256.09 735.338 257.57C735.338 258.95 734.838 260.11 733.858 261.05C732.868 261.99 731.638 262.46 730.158 262.46H692.368ZM729.268 330.63C724.028 330.63 719.358 329.4 715.268 326.93C711.168 324.46 707.938 321.08 705.558 316.78C703.178 312.48 701.998 307.57 701.998 302.04V229.57C701.998 227.89 702.518 226.51 703.558 225.42C704.598 224.33 705.948 223.79 707.638 223.79C709.328 223.79 710.698 224.33 711.788 225.42C712.878 226.51 713.418 227.89 713.418 229.57V302.04C713.418 307.08 714.898 311.2 717.868 314.41C720.828 317.62 724.638 319.23 729.278 319.23H733.278C734.858 319.23 736.138 319.77 737.128 320.86C738.118 321.95 738.608 323.33 738.608 325.01C738.608 326.69 738.018 328.05 736.828 329.09C735.638 330.13 734.158 330.65 732.378 330.65H729.268V330.63Z" fill="white"/>
<path d="M793.878 331.37C785.878 331.37 778.788 329.62 772.608 326.11C766.428 322.6 761.588 317.74 758.088 311.51C754.578 305.29 752.828 298.17 752.828 290.17C752.828 282.17 754.478 274.93 757.788 268.76C761.098 262.59 765.668 257.72 771.498 254.16C777.328 250.6 784.038 248.83 791.648 248.83C799.258 248.83 805.698 250.53 811.288 253.94C816.868 257.35 821.188 262.07 824.258 268.09C827.318 274.12 828.848 280.98 828.848 288.69C828.848 290.27 828.348 291.53 827.368 292.47C826.378 293.41 825.098 293.88 823.518 293.88H760.538V284.4H824.708L818.338 288.99C818.438 283.26 817.398 278.12 815.228 273.58C813.058 269.04 809.968 265.48 805.968 262.91C801.968 260.34 797.198 259.06 791.668 259.06C786.138 259.06 781.098 260.39 776.848 263.06C772.598 265.73 769.318 269.41 766.998 274.1C764.678 278.79 763.518 284.15 763.518 290.18C763.518 296.21 764.828 301.54 767.448 306.19C770.068 310.83 773.648 314.49 778.188 317.16C782.728 319.83 787.968 321.16 793.898 321.16C797.458 321.16 801.038 320.54 804.638 319.31C808.248 318.08 811.128 316.52 813.308 314.64C814.398 313.75 815.628 313.28 817.018 313.23C818.398 313.18 819.588 313.55 820.578 314.34C821.858 315.53 822.528 316.81 822.578 318.19C822.628 319.58 822.058 320.76 820.878 321.75C817.618 324.52 813.468 326.81 808.428 328.64C803.388 330.47 798.548 331.38 793.908 331.38L793.878 331.37Z" fill="white"/>
<path d="M853.748 330.63C851.968 330.63 850.588 330.14 849.598 329.15C848.608 328.16 848.118 326.78 848.118 325V255.2C848.118 253.42 848.608 252.04 849.598 251.05C850.588 250.06 851.968 249.57 853.748 249.57C855.528 249.57 856.908 250.07 857.898 251.05C858.888 252.04 859.378 253.42 859.378 255.2V325C859.378 326.78 858.878 328.16 857.898 329.15C856.918 330.14 855.528 330.63 853.748 330.63ZM852.858 280.69C853.158 274.57 854.758 269.08 857.678 264.24C860.588 259.4 864.398 255.6 869.088 252.83C873.778 250.07 878.988 248.68 884.718 248.68C889.258 248.68 892.768 249.32 895.238 250.61C897.708 251.9 898.648 253.77 898.058 256.24C897.658 257.72 896.998 258.71 896.058 259.2C895.118 259.7 893.988 259.89 892.648 259.79C891.318 259.69 889.808 259.59 888.128 259.49C882.598 259 877.678 259.56 873.378 261.19C869.078 262.82 865.668 265.32 863.158 268.67C860.638 272.03 859.378 276.03 859.378 280.67H852.858V280.69Z" fill="white"/>
</g>
<defs>
<clipPath id="clip0_711_951">
<rect width="898.22" height="365.3" fill="white"/>
</clipPath>
</defs>
</svg>
